<svg width="96" height="24" viewBox="0 0 96 24" fill="none" xmlns="http://www.w3.org/2000/svg">
<path d="M0 21.0261V0H5.40177L11.2101 14.3756H11.3263L17.1346 0H22.5364V21.0261H18.3253V8.01549H18.2382L13.0397 21.0261H9.49665L4.32722 8.01549H4.21105V21.0261H0Z" fill="black"/>
<path d="M39.4759 6.04066V21.0261H35.352V18.819H35.2648C34.4371 20.4308 32.7818 21.4327 30.6472 21.4327C27.2493 21.4327 25.2599 18.9497 25.2745 14.9274V6.04066H29.3984V14.2304C29.3839 16.4085 30.4149 17.6573 32.1864 17.6573C33.7982 17.6573 35.1341 16.5973 35.352 14.1723V6.04066H39.4759Z" fill="black"/>
<path d="M49.3582 21.4327C44.8132 21.4327 41.3572 18.0349 41.3717 13.5334C41.3572 9.03195 44.8132 5.63408 49.3582 5.63408C52.5238 5.63408 55.094 7.28945 56.3282 9.87415L52.669 11.3843C52.0736 10.1355 50.8829 9.40949 49.3582 9.40949C46.9913 9.40949 45.3359 11.1084 45.3504 13.5334C45.3359 15.9584 46.9913 17.6573 49.3582 17.6573C50.8829 17.6573 52.0736 16.9313 52.669 15.6825L56.3282 17.1926C55.094 19.7773 52.5238 21.4327 49.3582 21.4327Z" fill="black"/>
<path d="M65.4264 21.4327C60.8814 21.4327 57.4254 18.0349 57.44 13.5334C57.4254 9.03195 60.8814 5.63408 65.4264 5.63408C68.592 5.63408 71.1622 7.28945 72.3965 9.87415L68.7372 11.3843C68.1418 10.1355 66.9511 9.40949 65.4264 9.40949C63.0595 9.40949 61.4042 11.1084 61.4187 13.5334C61.4042 15.9584 63.0595 17.6573 65.4264 17.6573C66.9511 17.6573 68.1418 16.9313 68.7372 15.6825L72.3965 17.1926C71.1622 19.7773 68.592 21.4327 65.4264 21.4327Z" fill="black"/>
<path d="M81.4075 21.4327C76.8915 21.4327 73.4937 18.0349 73.5082 13.5334C73.4937 9.03195 76.8915 5.63408 81.4075 5.63408C85.8945 5.63408 89.2924 9.03195 89.3069 13.5334C89.2924 18.0349 85.8945 21.4327 81.4075 21.4327ZM81.4075 17.6573C83.6873 17.6573 85.3136 15.9584 85.3282 13.5334C85.3136 11.1084 83.6873 9.40949 81.4075 9.40949C79.0987 9.40949 77.4724 11.1084 77.4869 13.5334C77.4724 15.9584 79.0987 17.6573 81.4075 17.6573Z" fill="black"/>
<path fill-rule="evenodd" clip-rule="evenodd" d="M95.7542 18.0508H91.7891V22.0159H93.7728V23.9985L95.7554 22.0159H95.7542V18.0508Z" fill="#BDFF00"/>
</svg>
