<svg width="25" height="24" viewBox="0 0 25 24" fill="none" xmlns="http://www.w3.org/2000/svg">
<path fill-rule="evenodd" clip-rule="evenodd" d="M12.5003 3.1543C7.29578 3.1543 3.07178 6.43544 3.07178 10.4709C3.07178 12.9883 4.70292 15.1852 7.19206 16.524L6.14549 20.3614C6.12575 20.4378 6.12981 20.5183 6.15714 20.5923C6.18447 20.6662 6.23376 20.73 6.2984 20.7752C6.36303 20.8203 6.43993 20.8446 6.51877 20.8448C6.59761 20.845 6.67463 20.8211 6.73949 20.7763L11.3218 17.7309C11.7084 17.7309 12.1044 17.7969 12.5003 17.7969C17.7049 17.7969 21.9289 14.5157 21.9289 10.4709C21.9289 6.42601 17.7049 3.1543 12.5003 3.1543Z" fill="black"/>
</svg>
